<?xml version="1.0" encoding="utf-8"?>
<!-- Generator: Adobe Illustrator 16.0.0, SVG Export Plug-In . SVG Version: 6.00 Build 0)  -->
<!DOCTYPE svg PUBLIC "-//W3C//DTD SVG 1.1//EN" "http://www.w3.org/Graphics/SVG/1.1/DTD/svg11.dtd">
<svg version="1.1" id="Layer_1" xmlns="http://www.w3.org/2000/svg" xmlns:xlink="http://www.w3.org/1999/xlink" x="0px" y="0px"
	 width="481.89px" height="113.39px" viewBox="0 0 481.89 113.39" enable-background="new 0 0 481.89 113.39" xml:space="preserve" fill="white">
<g>
	<path fill-rule="evenodd" clip-rule="evenodd" d="M476.841,104.12c-0.239,0.453-0.42,0.949-0.728,1.349
		c-0.758,0.984-1.779,1.53-3.041,1.523c-5.775-0.031-11.552-0.074-17.327-0.114c-2.379-0.017-4.757-0.038-7.136-0.054
		c-4.478-0.03-8.955-0.086-13.433-0.079c-2.856,0.005-5.712,0.128-8.568,0.154c-2.183,0.02-4.019-0.758-5.321-2.576
		c-0.845-1.177-1.015-2.536-0.956-3.937c0.074-1.772,0.16-3.544,0.254-5.315c0.145-2.725,0.316-5.448,0.447-8.173
		c0.105-2.19,0.233-4.382,0.238-6.573c0.025-10.079,0.007-20.158,0.013-30.237c0.006-7.958,0.03-15.916,0.027-23.874
		c0-0.812-0.036-1.647-0.224-2.432c-0.515-2.154-2.171-3.449-4.542-3.53c-3.551-0.122-7.104-0.173-10.655-0.252
		c-0.837-0.018-1.688,0.069-2.511-0.051c-2.743-0.4-4.061-2.485-3.416-5.28c0.311-1.344,1.081-2.282,2.372-2.789
		c1.236-0.486,2.521-0.749,3.846-0.752c2.659-0.007,5.318,0.014,7.978,0.034c3.416,0.026,6.833,0.07,10.25,0.095
		c5.454,0.04,10.909,0.096,16.364,0.096c5.355,0,10.71-0.065,16.065-0.092c2.234-0.011,4.146,1.65,4.395,3.792
		c0.262,2.251-1.273,4.408-3.487,4.889c-0.212,0.046-0.436,0.056-0.653,0.055c-2.299-0.01-4.598-0.021-6.896-0.042
		c-3.058-0.027-6.115-0.058-9.172-0.095c-2.136-0.026-4.272-0.105-6.407-0.079c-0.824,0.01-1.673,0.153-2.462,0.396
		c-1.69,0.519-2.697,1.933-2.788,3.782c-0.079,1.635-0.157,3.271-0.177,4.906c-0.088,7.491-0.165,14.982-0.226,22.474
		c-0.021,2.559,0.229,5.139-0.021,7.673c-0.443,4.512-0.122,9.017-0.204,13.523c-0.083,4.538-0.06,9.079-0.003,13.617
		c0.032,2.55,0.142,5.104,0.372,7.643c0.178,1.967,0.77,3.391,3.407,4.056c1.49,0.376,3.057,0.588,4.595,0.622
		c4.813,0.109,9.629,0.088,14.444,0.141c3.314,0.036,6.629,0.113,9.943,0.17c1.838,0.03,3.677,0.028,5.514,0.091
		c1.891,0.064,3.783,0.144,5.668,0.3c1.78,0.148,2.985,1.206,3.843,2.711c0.105,0.186,0.212,0.371,0.318,0.557
		C476.841,103,476.841,103.561,476.841,104.12z"/>
	<path fill-rule="evenodd" clip-rule="evenodd" d="M5.12,103.88c0.606-1.256,1.056-2.624,1.852-3.746
		c1.69-2.383,3.562-4.636,5.357-6.943c1.515-1.947,3.021-3.9,4.542-5.843c1.939-2.475,3.895-4.937,5.833-7.411
		c3.42-4.368,6.837-8.739,10.247-13.116c0.929-1.191,1.896-2.362,2.72-3.625c0.947-1.452,1.285-3.118,1.291-4.847
		c0.005-1.56-0.012-3.12,0.004-4.68c0.019-1.717,0.063-3.434,0.101-5.15c0.031-1.396,0.084-2.792,0.104-4.188
		c0.046-3.354,0.083-6.708,0.114-10.063c0.023-2.418,0.028-4.837,0.048-7.255c0.019-2.257,0.015-4.516,0.079-6.772
		c0.07-2.502-1.469-4.077-3.852-4.127c-0.897-0.019-1.794-0.083-2.691-0.094c-3.075-0.041-6.151-0.061-9.226-0.102
		c-1.343-0.018-2.343-0.636-2.893-1.862c-0.611-1.364-0.847-2.772-0.233-4.218c0.54-1.27,1.601-1.76,2.871-1.935
		c0.256-0.035,0.519-0.021,0.779-0.021c12.719-0.001,25.438-0.001,38.156-0.001c0.694,0,1.389-0.005,2.083-0.001
		c1.717,0.011,2.889,1.467,3.168,2.99c0.333,1.818-0.469,3.592-2.025,4.571c-0.872,0.548-1.869,0.551-2.834,0.562
		c-3.179,0.034-6.362,0.093-9.539-0.007c-3.991-0.126-6.391,2.375-6.372,6.363c0.031,6.239,0.008,12.479,0.008,18.718
		c0,3,0.04,6-0.014,8.999c-0.037,2.028-0.247,4.054-0.3,6.082c-0.042,1.594,0.42,3.085,1.396,4.355
		c2.653,3.455,5.345,6.882,8.014,10.325c2.218,2.861,4.42,5.734,6.637,8.596c2.46,3.177,4.936,6.341,7.394,9.519
		c2.458,3.178,4.917,6.354,7.348,9.552c0.985,1.297,1.936,2.624,2.829,3.985c0.741,1.129,0.842,2.362,0.149,3.568
		c-0.74,1.287-1.915,1.766-3.362,1.766c-1.26,0-2.117-0.605-2.851-1.572c-3.355-4.418-6.735-8.817-10.111-13.219
		c-2.903-3.784-5.792-7.58-8.729-11.339c-2.118-2.712-4.279-5.391-6.47-8.043c-0.85-1.029-1.814-1.966-2.76-2.912
		c-1.097-1.099-2.075-1.168-3.363-0.328c-1.435,0.935-2.422,2.294-3.45,3.611c-2.471,3.167-4.929,6.344-7.389,9.52
		c-2.022,2.61-4.033,5.229-6.061,7.834c-2.601,3.344-5.207,6.685-7.825,10.016c-1.278,1.625-2.533,3.274-3.903,4.82
		c-0.955,1.077-2.303,1.564-3.718,1.724c-1.626,0.184-2.827-0.924-3.027-2.677c-0.016-0.143-0.083-0.278-0.125-0.417
		C5.12,104.521,5.12,104.2,5.12,103.88z"/>
	<path fill-rule="evenodd" clip-rule="evenodd" d="M235.4,6.32c0.685,0.488,1.474,0.88,2.031,1.485
		c0.933,1.013,1.145,2.35,1.161,3.685c0.029,2.439,0.02,4.88,0.006,7.32c-0.024,4.217-0.059,8.434-0.097,12.651
		c-0.031,3.455-0.097,6.911-0.098,10.366c0,1.638,0.359,3.202,1.354,4.563c0.841,1.152,2.022,1.82,3.389,1.898
		c2.248,0.129,4.508,0.078,6.762,0.083c1.199,0.003,2.397-0.035,3.597-0.05c3.216-0.041,6.434-0.143,9.648-0.085
		c1.337,0.024,2.691,0.295,3.993,0.629c1.395,0.358,2.075,1.452,2.329,2.836c0.231,1.261,0.011,2.452-0.489,3.609
		c-0.403,0.932-1.069,1.54-2.11,1.625c-1.707,0.141-3.415,0.35-5.125,0.361c-6.799,0.043-13.6,0.017-20.399,0.027
		c-0.716,0.001-1.432,0.059-2.146,0.12c-0.63,0.053-0.812,0.293-0.812,1.011c-0.001,4.58,0.01,9.16-0.003,13.74
		c-0.017,5.536-0.056,11.072-0.083,16.608c-0.012,2.419-0.009,4.839-0.032,7.259c-0.028,2.877-0.033,5.755-0.128,8.63
		c-0.083,2.479-1.879,4.29-4.3,4.183c-2.241-0.101-4.43-1.312-4.66-4.305c-0.16-2.064-0.107-4.145-0.149-6.218
		c-0.003-0.16,0.002-0.32,0.002-0.479c0.01-3.96,0.01-7.919,0.031-11.878c0.023-4.097,0.065-8.193,0.101-12.289
		c0.036-4.034,0.071-8.069,0.112-12.104c0.048-4.716,0.105-9.431,0.152-14.147c0.038-3.857,0.065-7.713,0.1-11.57
		c0.035-3.896,0.071-7.791,0.111-11.686c0.036-3.516,0.058-7.032,0.124-10.548c0.028-1.493,0.126-2.986,0.246-4.475
		c0.059-0.732,0.446-1.329,1.123-1.663c0.85-0.42,1.72-0.798,2.581-1.194C234.28,6.32,234.84,6.32,235.4,6.32z"/>
	<path fill-rule="evenodd" clip-rule="evenodd" d="M148.524,70.457c0-10.639-0.005-21.277,0.004-31.917
		c0.002-2.021,0.241-4.01,0.926-5.933c0.654-1.836,1.691-3.423,2.971-4.876c2.538-2.88,5.842-4.341,9.487-5.208
		c3.511-0.834,7.06-1.237,10.67-1.086c1.197,0.05,2.397,0.041,3.597,0.048c5.697,0.034,11.395,0.095,17.092,0.084
		c2.793-0.005,3.583,2.334,3.434,4.19c-0.127,1.586-0.895,2.705-2.361,3.304c-0.432,0.176-0.924,0.278-1.391,0.285
		c-4.034,0.061-8.07,0.088-12.104,0.133c-2.916,0.033-5.832,0.074-8.748,0.12c-2.017,0.031-4.036,0.025-6.049,0.131
		c-1.819,0.095-3.439,0.792-4.869,1.933c-1.339,1.07-2.25,2.406-2.636,4.086c-0.213,0.927-0.012,1.741,0.654,2.424
		c1.548,1.586,3.421,2.451,5.646,2.508c1.637,0.042,3.274,0.071,4.912,0.1c2.316,0.039,4.632,0.081,6.948,0.106
		c3.955,0.043,7.911,0.086,11.866,0.104c1.236,0.006,2.472-0.088,3.708-0.098c2.138-0.017,3.957,1.212,4.749,3.196
		c0.285,0.714,0.353,1.461,0.174,2.217c-0.246,1.04-1.272,1.751-2.559,1.767c-1.856,0.023-3.713,0.047-5.57,0.048
		c-7.699,0.005-15.398-0.004-23.098,0.008c-1.604,0.002-3.168,0.216-4.636,0.965c-3.406,1.738-4.135,5.548-1.608,8.431
		c1.25,1.426,2.753,2.116,4.679,2.11c5.395-0.017,10.79,0.033,16.185,0.101c2.974,0.037,5.946,0.15,8.918,0.252
		c1.292,0.045,2.583,0.134,3.872,0.222c1.658,0.114,2.985,0.921,4.166,2.025c1.899,1.774,3.169,3.921,3.564,6.492
		c0.607,3.954,0.085,7.709-2.236,11.095c-0.865,1.263-2.099,2.055-3.387,2.778c-1.29,0.726-2.614,1.383-4.096,1.637
		c-0.155,0.026-0.304,0.096-0.455,0.149c-0.44,0.157-0.599,0.399-0.338,0.86c1.228,2.171,2.424,4.358,3.66,6.524
		c2.066,3.621,4.164,7.225,6.229,10.847c0.6,1.052,0.952,2.184,0.929,3.421c-0.027,1.481-0.803,2.378-2.266,2.506
		c-1.401,0.123-2.588-0.297-3.329-1.554c-0.972-1.649-1.901-3.324-2.828-4.999c-3.014-5.446-6.026-10.892-9.019-16.35
		c-0.726-1.324-1.785-1.94-3.297-1.937c-7.179,0.02-14.358,0.009-21.538,0.009c-0.24,0-0.48,0.001-0.72,0.005
		c-0.328,0.006-0.492,0.12-0.486,0.503c0.042,2.777,0.063,5.555,0.086,8.332c0.003,0.299-0.027,0.599-0.023,0.897
		c0.037,3.056,0.084,6.111,0.112,9.167c0.004,0.516-0.042,1.036-0.115,1.548c-0.258,1.807-1.485,3.003-3.304,3.175
		c-0.724,0.068-1.462,0.058-2.19,0.013c-2.172-0.134-3.991-2.114-4.008-4.751c-0.027-4.138,0.019-8.277,0.022-12.416
		c0.005-6.577,0.001-13.155,0.001-19.732C148.521,70.457,148.522,70.457,148.524,70.457z M171.789,66.816
		c-1.434,0.084-3.5,0.23-5.568,0.318c-1.704,0.072-3.236,0.646-4.699,1.459c-0.993,0.552-1.84,1.24-2.244,2.374
		c-0.616,1.727-0.064,3.663,1.395,4.614c1.418,0.926,2.984,1.402,4.685,1.419c3.855,0.038,7.71,0.107,11.565,0.112
		c3.115,0.003,6.232-0.017,9.344-0.131c1.75-0.064,3.417-0.56,4.881-1.602c1.536-1.093,2.097-2.395,1.703-4.129
		c-0.628-2.763-2.203-3.688-4.698-3.838c-2.984-0.179-5.974-0.262-8.962-0.371C176.937,66.961,174.683,66.904,171.789,66.816z"/>
	<path fill-rule="evenodd" clip-rule="evenodd" d="M377.105,19.639c-3.46,0-6.919,0-10.379,0c-1.754,0-3.51-0.04-5.263,0.015
		c-1.028,0.032-2.066,0.142-3.074,0.344c-1.138,0.228-1.945,1-2.504,1.986c-0.537,0.947-0.106,2.107,0.973,2.735
		c0.826,0.481,1.659,0.954,2.513,1.386c4.254,2.157,8.517,4.298,12.774,6.449c4.002,2.022,8.019,4.018,11.995,6.089
		c1.46,0.761,2.854,1.66,4.223,2.579c1.59,1.067,1.885,3.453,1.13,4.78c-0.735,1.29-1.608,2.507-2.495,3.702
		c-2.642,3.561-5.328,7.089-7.979,10.645c-1.007,1.349-1.103,2.835-0.603,4.421c0.568,1.803,1.645,3.308,2.715,4.817
		c2.242,3.165,4.503,6.316,6.759,9.471c3.886,5.435,7.775,10.866,11.658,16.302c1.769,2.476,3.552,4.941,5.274,7.448
		c0.998,1.451,0.766,3.458-0.411,4.497c-1.22,1.076-3.273,1.202-4.472,0.158c-0.976-0.852-1.95-1.749-2.725-2.777
		c-3.003-3.986-5.941-8.021-8.872-12.062c-3.386-4.666-6.746-9.35-10.102-14.037c-1.146-1.601-2.206-3.264-3.377-4.844
		c-0.689-0.93-1.513-1.799-2.764-1.926c-0.443-0.046-0.938,0.085-1.362,0.253c-1.152,0.455-1.978,1.316-2.632,2.342
		c-2.503,3.925-4.98,7.864-7.5,11.778c-3.393,5.268-6.806,10.522-10.228,15.771c-1.021,1.564-2.06,3.12-3.165,4.624
		c-1.527,2.079-4.066,2.195-6.021,0.93c-1.282-0.831-1.693-2.671-0.888-4.255c0.665-1.308,1.492-2.536,2.282-3.777
		c4.067-6.394,8.165-12.767,12.215-19.171c3.265-5.163,6.48-10.357,9.709-15.544c0.783-1.258,0.589-2.179-0.517-3.434
		c-1.333-1.514-3.004-2.556-4.739-3.497c-2.665-1.446-5.363-2.828-8.055-4.224c-3.346-1.735-6.71-3.434-10.042-5.194
		c-1.334-0.705-2.617-1.511-3.898-2.311c-1.158-0.722-1.59-1.869-1.782-3.168c-0.572-3.868,4.062-5.338,6.587-3.958
		c1.698,0.928,3.459,1.745,5.194,2.605c5.148,2.554,10.294,5.116,15.452,7.651c2.059,1.012,4.124,2.017,6.228,2.928
		c1.937,0.838,3.833,0.688,5.483-0.728c1.866-1.601,2.393-4.775,0.771-6.612c-1.68-1.904-3.709-3.374-5.938-4.546
		c-3.532-1.857-7.107-3.632-10.652-5.464c-3.597-1.859-7.206-3.695-10.753-5.645c-1.42-0.781-2.832-1.687-3.997-2.798
		c-2.79-2.663-3.038-6.941-0.783-9.861c1.692-2.192,3.814-3.865,6.536-4.59c1.104-0.294,2.269-0.478,3.41-0.501
		c3.638-0.074,7.278-0.04,10.917-0.066c1.375-0.01,2.749-0.105,4.123-0.101c6.954,0.025,13.909,0.056,20.863,0.127
		c0.862,0.009,1.729,0.247,2.582,0.432c0.869,0.188,1.436,0.794,1.748,1.584c0.488,1.233,0.513,2.519-0.006,3.737
		c-0.557,1.306-1.692,1.87-3.041,2.146c-2.372,0.485-4.768,0.333-7.158,0.354C381.065,19.652,379.085,19.639,377.105,19.639z"/>
	<path fill-rule="evenodd" clip-rule="evenodd" d="M126.836,82.878c0.807,1.597,1.572,3.151,2.372,4.688
		c1.879,3.611,3.772,7.216,5.666,10.819c0.845,1.607,1.72,3.198,2.553,4.812c0.603,1.169,0.732,2.337-0.08,3.501
		c-0.965,1.384-4.082,2.044-5.275-0.043c-1.721-3.009-3.583-5.941-5.246-8.981c-2.297-4.2-4.468-8.471-6.688-12.713
		c-0.503-0.962-1.22-1.503-2.369-1.504c-1.935-0.003-3.868-0.12-5.803-0.139c-5.097-0.049-10.194-0.077-15.291-0.095
		c-0.876-0.003-1.754,0.072-2.627,0.153c-0.135,0.013-0.335,0.241-0.355,0.391c-0.061,0.453-0.062,0.915-0.063,1.374
		c-0.004,2.439,0.006,4.88-0.004,7.319c-0.016,3.857-0.035,7.715-0.071,11.572c-0.02,2.109-1.538,3.711-3.776,4.031
		c-1.799,0.258-3.627-0.868-4.134-2.625c-0.173-0.602-0.204-1.26-0.201-1.892c0.013-3.037,0.056-6.073,0.095-9.11
		c0.032-2.436,0.081-4.871,0.108-7.307c0.043-3.835,0.094-7.669,0.109-11.503c0.019-4.736,0.001-9.474,0.009-14.21
		c0.006-4.199,0.018-8.397,0.039-12.596c0.026-5.116,0.058-10.233,0.1-15.35c0.022-2.736,0.031-5.473,0.127-8.207
		c0.037-1.044,0.212-2.104,0.483-3.113c0.377-1.405,1.705-2.234,3.314-2.242c1.54-0.007,2.807,0.789,3.221,2.182
		c0.27,0.906,0.458,1.866,0.489,2.808c0.085,2.556,0.07,5.115,0.089,7.672c0.008,1.115-0.103,2.242,0.021,3.343
		c0.204,1.82,1.251,2.377,2.821,2.551c1.204,0.134,2.428,0.13,3.643,0.132c6.199,0.01,12.399,0.012,18.598-0.004
		c1.875-0.005,3.752-0.029,5.625-0.127c2.08-0.109,2.433-1.074,2.573-2.838c0.085-1.073,0.046-2.157,0.059-3.235
		c0.034-2.837,0.038-5.674,0.11-8.51c0.035-1.366,0.296-2.658,1.329-3.727c1.242-1.285,4.816-1.073,5.57,1.3
		c0.25,0.787,0.423,1.636,0.426,2.458c0.018,5.158-0.022,10.315-0.043,15.474c-0.01,2.299-0.011,4.599-0.032,6.897
		c-0.025,2.676-0.048,5.353-0.117,8.028c-0.018,0.688-0.153,1.385-0.323,2.055c-0.441,1.739-2.067,2.803-3.922,2.611
		c-0.296-0.031-0.595-0.084-0.882-0.164c-1.624-0.454-2.269-1.3-2.273-2.987c-0.006-2.459,0.017-4.919-0.013-7.379
		c-0.008-0.731-0.095-1.473-0.241-2.19c-0.315-1.554-1.065-2.165-2.649-2.258c-0.259-0.015-0.519-0.02-0.779-0.024
		c-2.477-0.034-4.953-0.077-7.43-0.099c-5.114-0.045-10.229-0.101-15.343-0.099c-1.026,0-2.076,0.14-3.073,0.385
		c-1.921,0.474-3.004,1.816-3.36,3.725c-0.416,2.227-0.428,4.479-0.311,6.735c0.054,1.037,0.047,2.077,0.068,3.115
		c0.003,0.16-0.008,0.322,0.012,0.479c0.132,0.995,0.29,1.136,1.292,1.143c3.258,0.021,6.517,0.038,9.775,0.059
		c4.937,0.03,9.875,0.057,14.812,0.097c1.697,0.015,3.395,0.063,5.091,0.102c1.475,0.033,2.95,0.084,4.426,0.106
		c1.127,0.018,2.117,0.385,2.93,1.154c2.455,2.32,4.122,5.072,4.448,8.5c0.316,3.328-0.542,6.322-2.694,8.917
		c-1.616,1.948-3.572,3.395-6.019,4.135C127.49,82.51,127.252,82.672,126.836,82.878z M116.98,75.947c0-0.009,0-0.018,0-0.025
		c1.719,0,3.439,0.024,5.158-0.007c1.854-0.034,3.461-0.665,4.729-2.078c1.155-1.287,1.303-3.16,0.197-4.493
		c-1.26-1.521-3.012-2.234-4.917-2.398c-1.925-0.166-3.87-0.107-5.806-0.145c-2.095-0.041-4.19-0.078-6.285-0.121
		c-1.774-0.036-3.549-0.09-5.323-0.116c-1.299-0.019-2.6,0.009-3.899-0.012c-1.876-0.028-3.587,0.513-5.127,1.546
		c-0.463,0.311-0.917,0.761-1.158,1.253c-0.871,1.779-0.56,4.701,2.422,5.555c2.715,0.776,5.451,0.928,8.216,1.005
		c2.291,0.064,4.584,0.031,6.876,0.036C113.701,75.95,115.34,75.947,116.98,75.947z"/>
	<path fill-rule="evenodd" clip-rule="evenodd" d="M338.96,58.821c0.082,1.413-0.416,2.705-1.203,3.886
		c-3.102,4.648-6.229,9.28-9.336,13.925c-3.11,4.647-6.214,9.299-9.312,13.955c-3.117,4.687-6.208,9.389-9.344,14.063
		c-0.658,0.982-1.35,1.992-2.219,2.773c-1.535,1.378-3.528,0.873-4.709-0.833c-2.707-3.912-4.634-8.267-7.103-12.311
		c-1.648-2.7-3.316-5.389-4.996-8.07c-3.896-6.223-7.813-12.433-11.705-18.658c-1.286-2.057-2.568-4.119-3.767-6.228
		c-0.768-1.35-1.086-2.876-1.073-4.421c0.019-2.28,0.847-4.318,2.134-6.173c2.155-3.107,4.347-6.188,6.485-9.306
		c4.793-6.987,9.552-13.997,14.348-20.982c2.127-3.099,4.302-6.164,6.469-9.234c1.423-2.015,4.292-1.882,5.697,0.256
		c2.872,4.372,5.722,8.759,8.608,13.121c3.26,4.925,6.531,9.842,9.834,14.738c3.136,4.648,6.334,9.255,9.474,13.901
		C338.368,54.887,339.017,56.731,338.96,58.821z M329.519,59.271c-0.287-1.888-0.678-3.497-1.574-4.92
		c-1.324-2.103-2.699-4.175-4.049-6.262c-2.084-3.223-4.165-6.447-6.249-9.67c-1.813-2.806-3.621-5.615-5.447-8.413
		c-1.543-2.364-3.091-4.725-4.67-7.065c-0.691-1.023-1.704-1.477-2.754-0.455c-0.507,0.493-0.982,1.039-1.375,1.626
		c-3.233,4.85-6.444,9.715-9.661,14.577c-3.051,4.611-6.1,9.224-9.148,13.837c-1.549,2.343-1.913,4.785-0.44,7.284
		c1.879,3.187,3.817,6.339,5.746,9.496c4.585,7.504,9.176,15.004,13.772,22.5c0.521,0.847,1.08,1.672,1.657,2.481
		c0.646,0.907,1.378,0.972,2.127,0.174c0.584-0.623,1.151-1.272,1.643-1.969c1.56-2.208,3.091-4.437,4.613-6.67
		c2.734-4.008,5.458-8.022,8.179-12.039c2.322-3.427,4.762-6.789,6.33-10.658C328.754,61.805,329.136,60.42,329.519,59.271z"/>
	<path fill-rule="evenodd" clip-rule="evenodd" d="M373.469,105.561c-3.696-0.006-6.667-2.996-6.665-6.71
		c0.002-3.712,3.031-6.734,6.739-6.723c3.713,0.012,6.703,3.032,6.695,6.766C380.23,102.628,377.248,105.565,373.469,105.561z"/>
	<path fill-rule="evenodd" clip-rule="evenodd" d="M41.799,103.761c-3.586,0.126-6.696-2.929-6.685-6.654
		c0.01-3.68,2.8-6.729,6.706-6.733c3.905-0.004,6.697,2.971,6.722,6.723C48.566,100.862,45.447,103.891,41.799,103.761z"/>
	<path fill-rule="evenodd" clip-rule="evenodd" d="M312.44,47.091c0.113,3.501-2.771,6.75-6.686,6.727
		c-3.768-0.022-6.686-2.817-6.718-6.711c-0.032-3.861,3.088-6.738,6.77-6.716C309.45,40.411,312.525,43.4,312.44,47.091z"/>
</g>
</svg>
